<svg width="24" height="24" viewBox="0 0 24 24" fill="none" xmlns="http://www.w3.org/2000/svg">
<g id="Frame">
<g id="Group">
<g id="Group_2">
<path id="Vector" d="M19.1731 8.88003H16.3507C15.1315 8.88003 14.4019 8.15043 14.4019 6.93123V4.10883C14.4019 2.88963 15.1315 2.16003 16.3507 2.16003H19.1731C20.3923 2.16003 21.1219 2.88963 21.1219 4.10883V6.93123C21.1219 8.15043 20.3923 8.88003 19.1731 8.88003ZM19.3843 5.70243C19.2691 5.58723 19.1155 5.52963 18.9619 5.52963C18.8083 5.52963 18.6547 5.58723 18.5395 5.70243L18.3667 5.87523V3.72483C18.3667 3.38883 18.0979 3.12003 17.7619 3.12003C17.4259 3.12003 17.1571 3.38883 17.1571 3.72483V5.87523L16.9843 5.70243C16.7539 5.47203 16.3699 5.47203 16.1395 5.70243C15.9091 5.93283 15.9091 6.31683 16.1395 6.54723L17.3395 7.74723C17.3875 7.79523 17.4547 7.83363 17.5219 7.86243C17.5411 7.87203 17.5603 7.87203 17.5795 7.88163C17.6275 7.90083 17.6755 7.91043 17.7331 7.91043H17.7907C17.8579 7.91043 17.9155 7.90083 17.9827 7.87203H18.0019C18.0691 7.84323 18.1267 7.80483 18.1747 7.75683C18.1843 7.74723 18.1843 7.74723 18.1939 7.74723L19.3939 6.54723C19.6243 6.31683 19.6243 5.93283 19.3843 5.70243ZM1.92191 11.4816V16.2816C1.92191 18.48 3.69791 20.256 5.89631 20.256H17.1379C19.3363 20.256 21.1219 18.4704 21.1219 16.272V11.4816C21.1219 10.8384 20.6035 10.32 19.9603 10.32H3.08351C2.44031 10.32 1.92191 10.8384 1.92191 11.4816ZM7.6819 17.04H5.7619C5.3683 17.04 5.0419 16.7136 5.0419 16.32C5.0419 15.9264 5.3683 15.6 5.7619 15.6H7.6819C8.0755 15.6 8.40191 15.9264 8.40191 16.32C8.40191 16.7136 8.0755 17.04 7.6819 17.04ZM13.9219 17.04H10.0819C9.6883 17.04 9.36191 16.7136 9.36191 16.32C9.36191 15.9264 9.6883 15.6 10.0819 15.6H13.9219C14.3155 15.6 14.6419 15.9264 14.6419 16.32C14.6419 16.7136 14.3155 17.04 13.9219 17.04ZM12.9619 4.90563V7.71843C12.9619 8.36163 12.4435 8.88003 11.8003 8.88003H3.08351C2.43071 8.88003 1.92191 8.34243 1.92191 7.69923C1.93151 6.61443 2.36351 5.62563 3.08351 4.90563C3.80351 4.18563 4.80191 3.74403 5.89631 3.74403H11.8003C12.4435 3.74403 12.9619 4.26243 12.9619 4.90563Z" fill="#868686"/>
</g>
</g>
</g>
</svg>
