<svg width="24" height="24" viewBox="0 0 24 24" fill="none" xmlns="http://www.w3.org/2000/svg">
    <g id="Frame">
        <g id="Group">
            <path id="Vector"
                  d="M17.625 14.174L20.267 15.75C20.5329 15.9092 20.743 16.1469 20.8684 16.4303C20.9937 16.7138 21.0282 17.0291 20.967 17.333C20.8483 17.941 20.606 18.5181 20.2552 19.0287C19.9044 19.5393 19.4526 19.9725 18.9277 20.3014C18.4027 20.6304 17.8159 20.848 17.2034 20.941C16.5909 21.034 15.9659 21.0003 15.367 20.842C12.4478 20.0416 9.78715 18.4952 7.64669 16.3549C5.50622 14.2146 3.95964 11.5541 3.159 8.63498C3.00051 8.03621 2.96662 7.41127 3.05941 6.79887C3.1522 6.18647 3.3697 5.59963 3.69845 5.07468C4.0272 4.54973 4.4602 4.09785 4.97064 3.747C5.48109 3.39615 6.05811 3.15381 6.666 3.03498H6.682C6.98729 2.97367 7.3041 3.00889 7.58847 3.13575C7.87284 3.26262 8.11068 3.47484 8.269 3.74298L9.833 6.37598C10.1001 6.82847 10.1833 7.3662 10.0655 7.87826C9.94775 8.39032 9.63794 8.83765 9.2 9.12798L7.543 10.233C8.71591 13.0431 10.9467 15.2793 13.754 16.459L14.869 14.794C15.1616 14.3573 15.6105 14.0496 16.1233 13.9342C16.6361 13.8189 17.1736 13.9047 17.625 14.174Z"
                  fill="#9499DB"/>
            <path id="Vector_2"
                  d="M20.692 3.71298C20.6157 3.52953 20.4696 3.38387 20.286 3.30798C20.1954 3.2699 20.0982 3.25019 20 3.24998H16.667C16.4681 3.24998 16.2773 3.329 16.1367 3.46965C15.996 3.6103 15.917 3.80107 15.917 3.99998C15.917 4.19889 15.996 4.38966 16.1367 4.53031C16.2773 4.67096 16.4681 4.74998 16.667 4.74998H18.189L14.47 8.46998C14.3963 8.53864 14.3372 8.62144 14.2962 8.71344C14.2552 8.80544 14.2332 8.90475 14.2314 9.00546C14.2296 9.10616 14.2482 9.20619 14.2859 9.29958C14.3236 9.39296 14.3797 9.4778 14.451 9.54902C14.5222 9.62024 14.607 9.67638 14.7004 9.7141C14.7938 9.75182 14.8938 9.77035 14.9945 9.76857C15.0952 9.76679 15.1945 9.74475 15.2865 9.70376C15.3785 9.66277 15.4613 9.60367 15.53 9.52998L19.25 5.81098V7.33298C19.25 7.53189 19.329 7.72266 19.4697 7.86331C19.6103 8.00396 19.8011 8.08298 20 8.08298C20.1989 8.08298 20.3897 8.00396 20.5303 7.86331C20.671 7.72266 20.75 7.53189 20.75 7.33298V3.99998C20.7497 3.90143 20.73 3.80391 20.692 3.71298Z"
                  fill="#9499DB" transform="rotate(180, 12, 12) translate(-12, 12)" />
        </g>
    </g>
</svg>
