<svg width="96" height="52" viewBox="0 0 96 52" fill="none" xmlns="http://www.w3.org/2000/svg">
    <path
        d="M48.8391 10.5689C58.8817 10.5689 67.9982 14.5028 74.7131 20.9019L79.9335 19.5697L81.7022 13.9629C77.2365 9.53141 71.9438 6.02028 66.1247 3.6289C60.2951 1.2323 54.0528 -0.000502448 47.7497 -3.03821e-05L45.8175 4.85201L47.7497 10.5857C48.1117 10.5753 48.4745 10.5689 48.8391 10.5689Z"
        fill="#F9D649"/>
    <path
        d="M13.7972 13.9626C9.34325 18.3823 5.80605 23.6382 3.38863 29.4286C1.66229 33.5655 0.531551 37.9264 0.0302084 42.3809C-0.287451 45.2053 1.94119 47.672 4.78332 47.672H6.96192C9.40001 47.672 11.4329 45.8348 11.7117 43.4127C12.6647 35.1358 16.3615 27.687 21.8757 21.9833L19.9408 16.2117L13.7972 13.9626Z"
        fill="#EE181F"/>
    <path
        d="M92.1107 29.4286C89.6933 23.6382 86.1561 18.3823 81.7021 13.9626L74.713 20.9016C80.833 26.7339 84.9581 34.6139 85.9685 43.4328C86.2452 45.8474 88.2854 47.672 90.716 47.672C93.5581 47.672 95.7868 45.2051 95.4691 42.3809C94.9677 37.9264 93.8369 33.5655 92.1107 29.4286Z"
        fill="#A9D5C6"/>
    <path
        d="M47.7497 10.5857V-3.03821e-05C41.4467 -0.000502448 35.2044 1.2323 29.3747 3.62891C23.5557 6.02035 18.263 9.53147 13.7972 13.9629L21.8757 21.9834C28.4426 15.1906 37.5879 10.8746 47.7497 10.5857Z"
        fill="#EC6E00"/>
</svg>
