<svg width="24" height="24" viewBox="0 0 24 24" fill="none" xmlns="http://www.w3.org/2000/svg">
<g id="Frame" clip-path="url(#clip0_3617_2672)">
<g id="Group">
<path id="Vector" d="M16.125 5.25H18V22.125H21.75V5.25H23.625L19.875 0.75L16.125 5.25ZM7.875 18.75H6V1.875H2.25V18.75H0.375L4.125 23.25L7.875 18.75Z" fill="#868686"/>
<path id="Vector_2" d="M6.75 12C6.75 14.8988 9.10125 17.25 12 17.25C14.8988 17.25 17.25 14.8988 17.25 12C17.25 9.10125 14.8988 6.75 12 6.75C9.10125 6.75 6.75 9.10125 6.75 12ZM9.83625 10.0125C10.2037 9.645 10.7963 9.645 11.1638 10.0125C11.5312 10.38 11.5312 10.9725 11.1638 11.34C10.7963 11.7075 10.2037 11.7075 9.83625 11.34C9.46875 10.9725 9.46875 10.38 9.83625 10.0125ZM14.1638 13.9913C13.7963 14.3588 13.2037 14.3588 12.8362 13.9913C12.4688 13.6238 12.4688 13.0312 12.8362 12.6638C13.2037 12.2963 13.7963 12.2963 14.1638 12.6638C14.5312 13.0312 14.5312 13.6238 14.1638 13.9913ZM14.3887 10.1475L10.1475 14.3887L9.61875 13.86L13.86 9.61875L14.3887 10.1475Z" fill="#868686"/>
</g>
</g>
<defs>
<clipPath id="clip0_3617_2672">
<rect width="24" height="24" fill="white"/>
</clipPath>
</defs>
</svg>
