<svg width="96" height="96" viewBox="0 0 96 96" fill="none" xmlns="http://www.w3.org/2000/svg">
    <path class="arrow"
          d="M45.0262 42.6889C44.7536 42.689 44.4864 42.6122 44.2554 42.4674C44.0245 42.3225 43.839 42.1155 43.7204 41.87L34.4408 22.6694C34.2791 22.324 34.2599 21.9289 34.3875 21.5695C34.5151 21.2101 34.7793 20.9156 35.1226 20.7496C35.4659 20.5836 35.8609 20.5597 36.2217 20.6829C36.5826 20.8062 36.8804 21.0667 37.0505 21.408L46.3301 40.6087C46.4368 40.8295 46.4857 41.0739 46.4723 41.3188C46.4588 41.5638 46.3834 41.8013 46.2531 42.0092C46.1229 42.217 45.942 42.3884 45.7274 42.5073C45.5128 42.6262 45.2715 42.6887 45.0262 42.6889Z"
          fill="#968D97"/>
    <path
        d="M47.7497 52C51.207 52 54.0097 49.1973 54.0097 45.74C54.0097 42.2826 51.207 39.4799 47.7497 39.4799C44.2923 39.4799 41.4896 42.2826 41.4896 45.74C41.4896 49.1973 44.2923 52 47.7497 52Z"
        fill="#D4CFD5"/>
    <path
        d="M47.7497 47.1891C48.5501 47.1891 49.1989 46.5403 49.1989 45.7399C49.1989 44.9396 48.5501 44.2907 47.7497 44.2907C46.9494 44.2907 46.3005 44.9396 46.3005 45.7399C46.3005 46.5403 46.9494 47.1891 47.7497 47.1891Z"
        fill="#877F87"/>
</svg>
