<svg width="30" height="30" viewBox="0 0 30 30" fill="none" xmlns="http://www.w3.org/2000/svg">
<g id="solar:arrow-up-outline">
<path id="Vector" fill-rule="evenodd" clip-rule="evenodd" d="M14.3375 4.33753C14.5133 4.16197 14.7516 4.06335 15 4.06335C15.2484 4.06335 15.4867 4.16197 15.6625 4.33753L23.1625 11.8375C23.2546 11.9234 23.3285 12.0269 23.3797 12.1419C23.431 12.2569 23.4585 12.381 23.4607 12.5069C23.463 12.6328 23.4398 12.7578 23.3927 12.8745C23.3455 12.9913 23.2753 13.0973 23.1863 13.1863C23.0973 13.2754 22.9912 13.3455 22.8745 13.3927C22.7578 13.4398 22.6327 13.463 22.5069 13.4608C22.381 13.4585 22.2568 13.431 22.1418 13.3798C22.0268 13.3285 21.9233 13.2546 21.8375 13.1625L15.9375 7.26253V25C15.9375 25.2487 15.8387 25.4871 15.6629 25.6629C15.4871 25.8388 15.2486 25.9375 15 25.9375C14.7514 25.9375 14.5129 25.8388 14.3371 25.6629C14.1613 25.4871 14.0625 25.2487 14.0625 25V7.26253L8.16251 13.1625C8.07668 13.2546 7.97318 13.3285 7.85818 13.3798C7.74318 13.431 7.61904 13.4585 7.49316 13.4608C7.36728 13.463 7.24225 13.4398 7.12551 13.3927C7.00878 13.3455 6.90273 13.2754 6.81371 13.1863C6.72469 13.0973 6.65451 12.9913 6.60736 12.8745C6.5602 12.7578 6.53705 12.6328 6.53927 12.5069C6.54149 12.381 6.56904 12.2569 6.62028 12.1419C6.67152 12.0269 6.7454 11.9234 6.83751 11.8375L14.3375 4.33753Z" fill="#219653"/>
</g>
</svg>
