<svg width="24" height="24" viewBox="0 0 24 24" fill="none" xmlns="http://www.w3.org/2000/svg">
<g id="Frame" clip-path="url(#clip0_3612_3639)">
<g id="Group">
<path id="Vector" fill-rule="evenodd" clip-rule="evenodd" d="M6.41719 2.94792H3.89198C3.83944 2.9479 3.78741 2.95824 3.73886 2.97834C3.69031 2.99844 3.6462 3.02791 3.60904 3.06506C3.57189 3.10222 3.54242 3.14633 3.52232 3.19488C3.50222 3.24342 3.49189 3.29546 3.49191 3.348V5.87297C3.49189 5.92551 3.50223 5.97754 3.52233 6.02609C3.54244 6.07463 3.5719 6.11874 3.60906 6.15589C3.64621 6.19305 3.69032 6.22252 3.73887 6.24262C3.78741 6.26272 3.83944 6.27306 3.89198 6.27305H6.41719C6.46973 6.27306 6.52176 6.26272 6.5703 6.24262C6.61885 6.22252 6.66296 6.19305 6.70011 6.15589C6.73727 6.11874 6.76673 6.07463 6.78684 6.02609C6.80694 5.97754 6.81728 5.92551 6.81726 5.87297V3.348C6.81728 3.29546 6.80694 3.24343 6.78684 3.19488C6.76673 3.14634 6.73727 3.10223 6.70011 3.06507C6.66296 3.02792 6.61885 2.99845 6.5703 2.97835C6.52176 2.95825 6.46973 2.94791 6.41719 2.94792ZM6.01711 5.47289H4.29211V3.74789H6.01711V5.47289ZM6.41719 7.78744H3.89198C3.83944 7.78743 3.78741 7.79777 3.73887 7.81787C3.69032 7.83797 3.64621 7.86744 3.60906 7.90459C3.5719 7.94174 3.54244 7.98585 3.52233 8.0344C3.50223 8.08294 3.49189 8.13497 3.49191 8.18752V10.7125C3.49189 10.7651 3.50223 10.8171 3.52233 10.8656C3.54244 10.9142 3.5719 10.9583 3.60906 10.9955C3.64621 11.0326 3.69032 11.0621 3.73887 11.0822C3.78741 11.1023 3.83944 11.1126 3.89198 11.1126H6.41719C6.46973 11.1126 6.52176 11.1023 6.5703 11.0822C6.61885 11.0621 6.66296 11.0326 6.70011 10.9955C6.73727 10.9583 6.76673 10.9142 6.78684 10.8656C6.80694 10.8171 6.81728 10.7651 6.81726 10.7125V8.18752C6.81728 8.13497 6.80694 8.08294 6.78684 8.0344C6.76673 7.98585 6.73727 7.94174 6.70011 7.90459C6.66296 7.86744 6.61885 7.83797 6.5703 7.81787C6.52176 7.79777 6.46973 7.78743 6.41719 7.78744ZM6.01687 10.3125H4.29187V8.5875H6.01687V10.3125ZM6.41695 12.627H3.89198C3.78589 12.6271 3.68416 12.6693 3.60914 12.7443C3.53412 12.8193 3.49195 12.921 3.49191 13.0271V15.5521C3.49189 15.6046 3.50223 15.6567 3.52233 15.7052C3.54244 15.7538 3.5719 15.7979 3.60906 15.835C3.64621 15.8722 3.69032 15.9016 3.73887 15.9217C3.78741 15.9418 3.83944 15.9522 3.89198 15.9522H6.41719C6.46973 15.9522 6.52176 15.9418 6.5703 15.9217C6.61885 15.9016 6.66296 15.8722 6.70011 15.835C6.73727 15.7979 6.76673 15.7538 6.78684 15.7052C6.80694 15.6567 6.81728 15.6046 6.81726 15.5521V13.0271C6.81721 12.921 6.77505 12.8193 6.70003 12.7442C6.62501 12.6692 6.52328 12.6271 6.41719 12.627L6.41695 12.627ZM6.01687 15.152H4.29187V13.427H6.01687V15.152ZM7.78439 3.92639C7.78438 3.87385 7.79472 3.82182 7.81482 3.77327C7.83492 3.72473 7.86439 3.68062 7.90154 3.64347C7.9387 3.60631 7.9828 3.57684 8.03135 3.55674C8.0799 3.53664 8.13193 3.5263 8.18447 3.52631H12.6874C12.7399 3.52631 12.7919 3.53666 12.8405 3.55677C12.889 3.57687 12.9331 3.60634 12.9703 3.64349C13.0074 3.68064 13.0369 3.72475 13.057 3.77329C13.0771 3.82183 13.0875 3.87385 13.0875 3.92639C13.0875 3.97893 13.0771 4.03095 13.057 4.07949C13.0369 4.12803 13.0074 4.17214 12.9703 4.20929C12.9331 4.24644 12.889 4.27591 12.8405 4.29601C12.7919 4.31612 12.7399 4.32647 12.6874 4.32647H8.18437C8.13183 4.32648 8.0798 4.31614 8.03126 4.29604C7.98271 4.27594 7.9386 4.24647 7.90145 4.20932C7.8643 4.17216 7.83483 4.12805 7.81472 4.07951C7.79462 4.03096 7.78428 3.97893 7.7843 3.92639H7.78439ZM15.402 5.29387C15.4021 5.34642 15.3917 5.39845 15.3716 5.44699C15.3515 5.49554 15.322 5.53965 15.2849 5.5768C15.2477 5.61395 15.2036 5.64342 15.1551 5.66352C15.1065 5.68363 15.0545 5.69397 15.002 5.69395H8.18437C8.13149 5.69453 8.07901 5.6846 8.02998 5.66476C7.98095 5.64492 7.93635 5.61555 7.89875 5.57835C7.86115 5.54115 7.8313 5.49687 7.81092 5.44806C7.79055 5.39925 7.78006 5.34688 7.78006 5.29399C7.78006 5.2411 7.79055 5.18874 7.81092 5.13993C7.8313 5.09112 7.86115 5.04683 7.89875 5.00963C7.93635 4.97244 7.98095 4.94307 8.02998 4.92322C8.07901 4.90338 8.13149 4.89346 8.18437 4.89403H15.0019C15.1079 4.89407 15.2096 4.9362 15.2846 5.01117C15.3597 5.08614 15.4019 5.18782 15.402 5.29387H15.402ZM7.78439 8.76595C7.78438 8.71341 7.79472 8.66138 7.81482 8.61283C7.83492 8.56429 7.86439 8.52018 7.90154 8.48303C7.9387 8.44587 7.9828 8.41641 8.03135 8.3963C8.0799 8.3762 8.13193 8.36586 8.18447 8.36588H12.6874C12.7935 8.36588 12.8952 8.40803 12.9703 8.48306C13.0453 8.55808 13.0875 8.65985 13.0875 8.76595C13.0875 8.87206 13.0453 8.97382 12.9703 9.04885C12.8952 9.12388 12.7935 9.16603 12.6874 9.16603H8.18437C8.13183 9.16604 8.0798 9.1557 8.03126 9.1356C7.98271 9.1155 7.9386 9.08603 7.90145 9.04888C7.8643 9.01173 7.83483 8.96762 7.81472 8.91907C7.79462 8.87053 7.78428 8.8185 7.7843 8.76595H7.78439ZM15.402 10.1341C15.402 10.1866 15.3917 10.2386 15.3716 10.2871C15.3514 10.3357 15.322 10.3798 15.2848 10.4169C15.2477 10.454 15.2036 10.4835 15.155 10.5035C15.1065 10.5236 15.0545 10.534 15.002 10.5339H8.18437C8.13149 10.5345 8.07901 10.5246 8.02998 10.5047C7.98095 10.4849 7.93635 10.4555 7.89875 10.4183C7.86115 10.3811 7.8313 10.3369 7.81092 10.288C7.79055 10.2392 7.78006 10.1869 7.78006 10.134C7.78006 10.0811 7.79055 10.0287 7.81092 9.97991C7.8313 9.9311 7.86115 9.88682 7.89875 9.84962C7.93635 9.81242 7.98095 9.78305 8.02998 9.76321C8.07901 9.74337 8.13149 9.73344 8.18437 9.73402H15.0019C15.0544 9.734 15.1064 9.74434 15.155 9.76444C15.2035 9.78455 15.2476 9.81402 15.2848 9.85117C15.322 9.88832 15.3514 9.93243 15.3715 9.98098C15.3916 10.0295 15.402 10.0816 15.402 10.1341H15.402ZM7.78439 13.6059C7.78438 13.5534 7.79473 13.5014 7.81484 13.4529C7.83494 13.4043 7.86442 13.3602 7.90157 13.3231C7.93872 13.286 7.98283 13.2565 8.03137 13.2365C8.07992 13.2164 8.13194 13.2061 8.18447 13.2061H12.6874C12.7403 13.2055 12.7927 13.2154 12.8418 13.2353C12.8908 13.2551 12.9354 13.2845 12.973 13.3217C13.0106 13.3589 13.0405 13.4032 13.0608 13.452C13.0812 13.5008 13.0917 13.5532 13.0917 13.6061C13.0917 13.6589 13.0812 13.7113 13.0608 13.7601C13.0405 13.8089 13.0106 13.8532 12.973 13.8904C12.9354 13.9276 12.8908 13.957 12.8418 13.9768C12.7927 13.9967 12.7403 14.0066 12.6874 14.006H8.18437C8.07829 14.006 7.97656 13.9638 7.90154 13.8888C7.82653 13.8138 7.78436 13.712 7.7843 13.6059H7.78439ZM15.402 14.9734C15.4021 15.026 15.3917 15.078 15.3716 15.1265C15.3515 15.1751 15.322 15.2192 15.2849 15.2563C15.2477 15.2935 15.2036 15.3229 15.1551 15.343C15.1065 15.3631 15.0545 15.3735 15.002 15.3735H8.18437C8.0783 15.3735 7.97658 15.3313 7.90158 15.2563C7.82657 15.1813 7.78444 15.0796 7.78444 14.9735C7.78444 14.8674 7.82657 14.7657 7.90158 14.6907C7.97658 14.6157 8.0783 14.5736 8.18437 14.5736H15.0019C15.0544 14.5736 15.1064 14.5839 15.1549 14.604C15.2035 14.6241 15.2476 14.6535 15.2847 14.6906C15.3219 14.7278 15.3514 14.7718 15.3715 14.8204C15.3916 14.8689 15.4019 14.9209 15.402 14.9734H15.402ZM2.39686 18.45V0.45C2.39703 0.330706 2.4445 0.216347 2.52885 0.131994C2.61321 0.0476399 2.72756 0.000173591 2.84686 0L16.0469 0C16.1662 0.000161222 16.2805 0.0476236 16.3649 0.13198C16.4492 0.216336 16.4967 0.330702 16.4969 0.45V18.45C16.4967 18.5693 16.4492 18.6837 16.3649 18.768C16.2805 18.8524 16.1662 18.8998 16.0469 18.9H2.84695C2.72766 18.8998 2.6133 18.8524 2.52895 18.768C2.44459 18.6837 2.39713 18.5693 2.39695 18.45H2.39686ZM21.3276 5.08697H19.8594V21.1811C19.8591 21.4663 19.7456 21.7397 19.5439 21.9414C19.3422 22.143 19.0687 22.2563 18.7835 22.2565H7.48434V23.7245C7.48439 23.7975 7.51344 23.8676 7.5651 23.9192C7.61676 23.9709 7.68681 24 7.75987 24H21.3276C21.4007 24 21.4707 23.9709 21.5224 23.9192C21.574 23.8676 21.6031 23.7975 21.6031 23.7245V5.36297C21.6031 5.28987 21.574 5.21977 21.5224 5.16804C21.4708 5.11631 21.4007 5.08715 21.3276 5.08697ZM18.7835 2.54362C18.8566 2.54377 18.9267 2.57287 18.9784 2.62454C19.0301 2.67622 19.0593 2.74628 19.0595 2.81939V21.1811C19.0593 21.2542 19.0302 21.3243 18.9784 21.3759C18.9267 21.4275 18.8566 21.4565 18.7835 21.4566H5.21648C5.14338 21.4566 5.07327 21.4276 5.02153 21.3759C4.96979 21.3243 4.94064 21.2542 4.94048 21.1811V19.6999H16.047C16.3784 19.6996 16.6961 19.5678 16.9304 19.3335C17.1648 19.0991 17.2966 18.7814 17.2969 18.45V2.54362H18.7835Z" fill="#868686"/>
</g>
</g>
<defs>
<clipPath id="clip0_3612_3639">
<rect width="24" height="24" fill="white"/>
</clipPath>
</defs>
</svg>
