<svg width="24" height="24" viewBox="0 0 24 24" fill="none" xmlns="http://www.w3.org/2000/svg">
<g id="Frame">
<g id="Group">
<path id="Vector" d="M11.25 22.212C11.2501 22.2434 11.2423 22.2742 11.2275 22.3018C11.2126 22.3293 11.191 22.3527 11.1647 22.3698C11.1385 22.3869 11.1084 22.3971 11.0772 22.3995C11.0459 22.402 11.0146 22.3966 10.986 22.3838L3.46575 19.0695C3.32794 19.0131 3.21005 18.9169 3.1271 18.7932C3.04416 18.6695 2.99991 18.524 3 18.375V10.875C3 10.5735 3.21225 10.2818 3.46575 10.1805L8.715 8.03329C8.80615 7.99597 8.90377 7.97696 9.00227 7.97735C9.10077 7.97775 9.19823 7.99754 9.28908 8.0356C9.37993 8.07366 9.46239 8.12925 9.53176 8.19918C9.60113 8.26911 9.65605 8.35201 9.69338 8.44317C9.7307 8.53432 9.74971 8.63194 9.74932 8.73044C9.74892 8.82894 9.72913 8.92639 9.69107 9.01724C9.65301 9.10809 9.59742 9.19056 9.52749 9.25993C9.45756 9.3293 9.37465 9.38422 9.2835 9.42154L5.73075 10.875L11.25 13.5V22.212ZM21 10.875V18.375C21.0001 18.524 20.9558 18.6695 20.8729 18.7932C20.79 18.9169 20.6721 19.0131 20.5343 19.0695L13.014 22.3838C12.9854 22.3966 12.9541 22.402 12.9228 22.3995C12.8916 22.3971 12.8615 22.3869 12.8353 22.3698C12.809 22.3527 12.7874 22.3293 12.7725 22.3018C12.7577 22.2742 12.7499 22.2434 12.75 22.212V13.5L18.2692 10.875L14.7188 9.42229C14.625 9.38683 14.5394 9.33295 14.4668 9.26382C14.3943 9.1947 14.3363 9.11175 14.2964 9.01985C14.2564 8.92796 14.2353 8.82899 14.2342 8.7288C14.2332 8.6286 14.2522 8.52921 14.2902 8.43649C14.3282 8.34376 14.3844 8.2596 14.4554 8.18895C14.5265 8.11831 14.611 8.06262 14.7039 8.02517C14.7969 7.98773 14.8964 7.96929 14.9966 7.97094C15.0968 7.97259 15.1956 7.99431 15.2872 8.03479L20.5343 10.1813C20.7952 10.2878 21 10.578 21 10.875ZM15.693 5.53729C15.6362 5.67431 15.54 5.7914 15.4167 5.87377C15.2933 5.95614 15.1483 6.00008 15 6.00004H13.5V9.00004H10.5V6.00004H9C8.85169 6.00001 8.70671 5.95601 8.58341 5.8736C8.4601 5.79118 8.36399 5.67406 8.30724 5.53703C8.25049 5.40001 8.23564 5.24923 8.26456 5.10377C8.29349 4.95831 8.36489 4.82468 8.46975 4.71979L11.4698 1.71979C11.5392 1.6499 11.6219 1.59444 11.7129 1.5566C11.8039 1.51875 11.9014 1.49927 12 1.49927C12.0986 1.49927 12.1961 1.51875 12.2871 1.5566C12.3781 1.59444 12.4608 1.6499 12.5303 1.71979L15.5303 4.71979C15.6352 4.82468 15.7067 4.95833 15.7357 5.10385C15.7646 5.24937 15.7498 5.40021 15.693 5.53729Z" fill="#868686"/>
</g>
</g>
</svg>
