<svg width="30" height="30" viewBox="0 0 30 30" fill="none" xmlns="http://www.w3.org/2000/svg">
<g id="solar:arrow-up-outline">
<path id="Vector" fill-rule="evenodd" clip-rule="evenodd" d="M15.6625 25.6625C15.4867 25.838 15.2484 25.9366 15 25.9366C14.7516 25.9366 14.5133 25.838 14.3375 25.6625L6.83749 18.1625C6.74538 18.0766 6.6715 17.9731 6.62026 17.8581C6.56903 17.7431 6.54147 17.619 6.53925 17.4931C6.53703 17.3672 6.56019 17.2422 6.60734 17.1255C6.65449 17.0087 6.72467 16.9027 6.81369 16.8137C6.90272 16.7246 7.00876 16.6545 7.1255 16.6073C7.24223 16.5602 7.36727 16.537 7.49314 16.5392C7.61902 16.5415 7.74317 16.569 7.85816 16.6202C7.97316 16.6715 8.07666 16.7454 8.16249 16.8375L14.0625 22.7375L14.0625 4.99997C14.0625 4.75133 14.1613 4.51287 14.3371 4.33706C14.5129 4.16124 14.7514 4.06247 15 4.06247C15.2486 4.06247 15.4871 4.16124 15.6629 4.33706C15.8387 4.51287 15.9375 4.75133 15.9375 4.99997L15.9375 22.7375L21.8375 16.8375C21.9233 16.7454 22.0268 16.6715 22.1418 16.6202C22.2568 16.569 22.381 16.5415 22.5068 16.5392C22.6327 16.537 22.7578 16.5602 22.8745 16.6073C22.9912 16.6545 23.0973 16.7246 23.1863 16.8137C23.2753 16.9027 23.3455 17.0087 23.3926 17.1255C23.4398 17.2422 23.463 17.3672 23.4607 17.4931C23.4585 17.619 23.431 17.7431 23.3797 17.8581C23.3285 17.9731 23.2546 18.0766 23.1625 18.1625L15.6625 25.6625Z" fill="#EEB916"/>
</g>
</svg>
